<svg xmlns="http://www.w3.org/2000/svg" xmlns:xlink="http://www.w3.org/1999/xlink" width="500" zoomAndPan="magnify" viewBox="0 0 375 374.999991" height="500" preserveAspectRatio="xMidYMid meet" version="1.0"><defs><g/><clipPath id="2e68d3e8cd"><path d="M 0 108.476562 L 375 108.476562 L 375 228.378906 L 0 228.378906 Z M 0 108.476562 " clip-rule="nonzero"/></clipPath><clipPath id="8e033dfa63"><path d="M 343.226562 156.761719 C 341.128906 156.761719 339.351562 158.148438 338.765625 160.058594 L 285.832031 160.058594 L 267.667969 141.894531 L 245.738281 141.894531 L 232.582031 128.746094 L 214.796875 128.746094 L 214.796875 131.25 L 231.546875 131.25 L 244.703125 144.402344 L 266.628906 144.402344 L 284.796875 162.5625 L 338.707031 162.5625 C 339.214844 164.585938 341.046875 166.082031 343.226562 166.082031 C 345.804688 166.082031 347.890625 163.992188 347.890625 161.417969 C 347.890625 158.847656 345.804688 156.761719 343.226562 156.761719 Z M 72.765625 130.464844 C 75.804688 130.464844 78.382812 128.515625 79.324219 125.800781 L 84.628906 125.800781 L 97.785156 112.648438 L 123.199219 112.648438 L 133.640625 123.085938 L 160.203125 123.085938 L 168.386719 118.910156 L 135.367188 118.910156 L 124.929688 108.472656 L 96.054688 108.472656 L 82.898438 121.625 L 79.4375 121.625 C 78.613281 118.71875 75.9375 116.59375 72.765625 116.59375 C 68.933594 116.59375 65.828125 119.699219 65.828125 123.53125 C 65.828125 127.359375 68.933594 130.464844 72.765625 130.464844 Z M 241.359375 123.085938 L 251.800781 112.648438 L 277.214844 112.648438 L 290.371094 125.800781 L 295.675781 125.800781 C 296.617188 128.515625 299.195312 130.464844 302.234375 130.464844 C 306.066406 130.464844 309.171875 127.359375 309.171875 123.53125 C 309.171875 119.699219 306.066406 116.59375 302.234375 116.59375 C 299.0625 116.59375 296.386719 118.71875 295.558594 121.625 L 292.101562 121.625 L 278.945312 108.472656 L 250.070312 108.472656 L 239.632812 118.910156 L 203.078125 118.910156 L 214.796875 123.085938 Z M 4.664062 151.246094 C 6.773438 151.246094 8.554688 149.847656 9.132812 147.921875 L 81.777344 147.921875 L 95.769531 133.9375 L 128.238281 133.9375 L 128.238281 131.433594 L 94.730469 131.433594 L 80.742188 145.417969 L 9.179688 145.417969 C 8.660156 143.410156 6.835938 141.925781 4.664062 141.925781 C 2.085938 141.925781 0 144.015625 0 146.589844 C 0 149.160156 2.085938 151.246094 4.664062 151.246094 Z M 133.640625 213.769531 L 123.199219 224.207031 L 97.785156 224.207031 L 84.628906 211.058594 L 79.324219 211.058594 C 78.382812 208.339844 75.804688 206.390625 72.765625 206.390625 C 68.933594 206.390625 65.828125 209.496094 65.828125 213.328125 C 65.828125 217.15625 68.933594 220.265625 72.765625 220.265625 C 75.9375 220.265625 78.613281 218.136719 79.4375 215.230469 L 82.898438 215.230469 L 96.054688 228.378906 L 124.929688 228.378906 L 135.367188 217.945312 L 175.035156 217.945312 L 160.203125 213.769531 Z M 370.335938 185.605469 C 368.226562 185.605469 366.445312 187.007812 365.867188 188.929688 L 293.222656 188.929688 L 279.234375 202.914062 L 246.761719 202.914062 L 246.761719 205.417969 L 280.269531 205.417969 L 294.261719 191.4375 L 365.820312 191.4375 C 366.339844 193.445312 368.164062 194.929688 370.335938 194.929688 C 372.910156 194.929688 375 192.839844 375 190.265625 C 375 187.691406 372.910156 185.605469 370.335938 185.605469 Z M 302.234375 206.390625 C 299.195312 206.390625 296.617188 208.339844 295.675781 211.058594 L 290.371094 211.058594 L 277.214844 224.207031 L 251.800781 224.207031 L 241.359375 213.769531 L 214.796875 213.769531 L 199.550781 217.945312 L 239.632812 217.945312 L 250.070312 228.378906 L 278.945312 228.378906 L 292.101562 215.230469 L 295.558594 215.230469 C 296.386719 218.136719 299.0625 220.265625 302.234375 220.265625 C 306.066406 220.265625 309.171875 217.15625 309.171875 213.328125 C 309.171875 209.496094 306.066406 206.390625 302.234375 206.390625 Z M 94.730469 205.417969 L 128.238281 205.417969 L 128.238281 202.914062 L 95.769531 202.914062 L 81.777344 188.929688 L 9.132812 188.929688 C 8.554688 187.007812 6.773438 185.605469 4.664062 185.605469 C 2.085938 185.605469 0 187.691406 0 190.265625 C 0 192.839844 2.085938 194.929688 4.664062 194.929688 C 6.835938 194.929688 8.660156 193.445312 9.179688 191.4375 L 80.742188 191.4375 Z M 230.128906 194.886719 L 240.566406 184.453125 L 252.847656 184.453125 C 253.699219 187.265625 256.3125 189.316406 259.40625 189.316406 C 263.191406 189.316406 266.257812 186.253906 266.257812 182.46875 C 266.257812 178.6875 263.191406 175.621094 259.40625 175.621094 C 256.390625 175.621094 253.832031 177.570312 252.917969 180.277344 L 238.839844 180.277344 L 228.398438 190.714844 L 227.007812 190.714844 C 226.191406 192.15625 225.300781 193.550781 224.335938 194.886719 Z M 228.398438 146.140625 L 238.839844 156.578125 L 252.917969 156.578125 C 253.832031 159.28125 256.390625 161.230469 259.40625 161.230469 C 263.191406 161.230469 266.257812 158.167969 266.257812 154.386719 C 266.257812 150.605469 263.191406 147.535156 259.40625 147.535156 C 256.3125 147.535156 253.699219 149.585938 252.847656 152.402344 L 240.566406 152.402344 L 230.128906 141.96875 L 224.335938 141.96875 C 225.300781 143.304688 226.191406 144.699219 227.007812 146.140625 Z M 280.269531 131.433594 L 246.761719 131.433594 L 246.761719 133.9375 L 279.234375 133.9375 L 293.222656 147.921875 L 365.867188 147.921875 C 366.445312 149.847656 368.226562 151.246094 370.335938 151.246094 C 372.910156 151.246094 375 149.160156 375 146.589844 C 375 144.015625 372.910156 141.925781 370.335938 141.925781 C 368.164062 141.925781 366.339844 143.410156 365.820312 145.417969 L 294.261719 145.417969 Z M 115.59375 161.230469 C 118.609375 161.230469 121.167969 159.28125 122.082031 156.578125 L 136.160156 156.578125 L 146.601562 146.140625 L 147.992188 146.140625 C 148.808594 144.699219 149.699219 143.304688 150.664062 141.96875 L 144.871094 141.96875 L 134.433594 152.402344 L 122.152344 152.402344 C 121.300781 149.585938 118.6875 147.535156 115.59375 147.535156 C 111.808594 147.535156 108.742188 150.605469 108.742188 154.386719 C 108.742188 158.167969 111.808594 161.230469 115.59375 161.230469 Z M 160.203125 128.746094 L 142.417969 128.746094 L 129.261719 141.894531 L 107.335938 141.894531 L 89.167969 160.058594 L 36.234375 160.058594 C 35.648438 158.148438 33.875 156.761719 31.773438 156.761719 C 29.195312 156.761719 27.109375 158.847656 27.109375 161.417969 C 27.109375 163.992188 29.195312 166.082031 31.773438 166.082031 C 33.953125 166.082031 35.785156 164.585938 36.292969 162.5625 L 90.203125 162.5625 L 108.371094 144.402344 L 130.300781 144.402344 L 143.453125 131.25 L 160.203125 131.25 Z M 90.203125 174.292969 L 36.292969 174.292969 C 35.785156 172.269531 33.953125 170.773438 31.773438 170.773438 C 29.195312 170.773438 27.109375 172.859375 27.109375 175.433594 C 27.109375 178.007812 29.195312 180.09375 31.773438 180.09375 C 33.875 180.09375 35.648438 178.707031 36.234375 176.796875 L 89.167969 176.796875 L 107.335938 194.957031 L 129.261719 194.957031 L 142.417969 208.109375 L 160.203125 208.109375 L 160.203125 205.605469 L 143.453125 205.605469 L 130.300781 192.453125 L 108.371094 192.453125 Z M 214.796875 208.109375 L 232.582031 208.109375 L 245.738281 194.957031 L 267.667969 194.957031 L 285.832031 176.796875 L 338.765625 176.796875 C 339.351562 178.707031 341.128906 180.09375 343.226562 180.09375 C 345.804688 180.09375 347.890625 178.007812 347.890625 175.433594 C 347.890625 172.859375 345.804688 170.773438 343.226562 170.773438 C 341.046875 170.773438 339.214844 172.269531 338.707031 174.292969 L 284.796875 174.292969 L 266.628906 192.453125 L 244.703125 192.453125 L 231.546875 205.605469 L 214.796875 205.605469 Z M 115.59375 189.316406 C 118.6875 189.316406 121.300781 187.265625 122.152344 184.453125 L 134.433594 184.453125 L 144.871094 194.886719 L 150.664062 194.886719 C 149.699219 193.550781 148.808594 192.15625 147.992188 190.714844 L 146.601562 190.714844 L 136.160156 180.277344 L 122.082031 180.277344 C 121.167969 177.570312 118.609375 175.621094 115.59375 175.621094 C 111.808594 175.621094 108.742188 178.6875 108.742188 182.46875 C 108.742188 186.253906 111.808594 189.316406 115.59375 189.316406 Z M 115.59375 189.316406 " clip-rule="nonzero"/></clipPath><clipPath id="4f1d11e285"><path d="M 343.226562 156.761719 C 341.128906 156.761719 339.351562 158.148438 338.765625 160.058594 L 285.832031 160.058594 L 267.664062 141.898438 L 245.738281 141.898438 L 232.582031 128.746094 L 214.796875 128.746094 L 214.796875 131.25 L 231.542969 131.25 L 244.699219 144.402344 L 266.628906 144.402344 L 284.796875 162.5625 L 338.707031 162.5625 C 339.214844 164.585938 341.042969 166.082031 343.226562 166.082031 C 345.804688 166.082031 347.890625 163.996094 347.890625 161.421875 C 347.890625 158.847656 345.804688 156.761719 343.226562 156.761719 Z M 72.765625 130.464844 C 75.804688 130.464844 78.382812 128.515625 79.324219 125.800781 L 84.628906 125.800781 L 97.785156 112.652344 L 123.199219 112.652344 L 133.636719 123.085938 L 160.203125 123.085938 L 168.386719 118.910156 L 135.367188 118.910156 L 124.929688 108.476562 L 96.054688 108.476562 L 82.898438 121.625 L 79.4375 121.625 C 78.609375 118.71875 75.9375 116.59375 72.765625 116.59375 C 68.933594 116.59375 65.828125 119.699219 65.828125 123.527344 C 65.828125 127.359375 68.933594 130.464844 72.765625 130.464844 Z M 241.359375 123.085938 L 251.800781 112.652344 L 277.214844 112.652344 L 290.367188 125.800781 L 295.675781 125.800781 C 296.617188 128.515625 299.199219 130.464844 302.234375 130.464844 C 306.066406 130.464844 309.171875 127.359375 309.171875 123.527344 C 309.171875 119.699219 306.066406 116.59375 302.234375 116.59375 C 299.0625 116.59375 296.386719 118.71875 295.558594 121.625 L 292.097656 121.625 L 278.945312 108.476562 L 250.070312 108.476562 L 239.632812 118.910156 L 203.078125 118.910156 L 214.796875 123.085938 Z M 4.664062 151.25 C 6.773438 151.25 8.554688 149.847656 9.132812 147.925781 L 81.777344 147.925781 L 95.765625 133.9375 L 128.238281 133.9375 L 128.238281 131.433594 L 94.730469 131.433594 L 80.742188 145.417969 L 9.179688 145.417969 C 8.660156 143.410156 6.835938 141.925781 4.664062 141.925781 C 2.085938 141.925781 0 144.011719 0 146.589844 C 0 149.164062 2.085938 151.25 4.664062 151.25 Z M 133.636719 213.769531 L 123.199219 224.207031 L 97.785156 224.207031 L 84.628906 211.058594 L 79.324219 211.058594 C 78.382812 208.339844 75.804688 206.390625 72.765625 206.390625 C 68.933594 206.390625 65.828125 209.496094 65.828125 213.328125 C 65.828125 217.15625 68.933594 220.265625 72.765625 220.265625 C 75.9375 220.265625 78.609375 218.136719 79.4375 215.230469 L 82.898438 215.230469 L 96.054688 228.378906 L 124.929688 228.378906 L 135.367188 217.945312 L 175.035156 217.945312 L 160.203125 213.769531 Z M 370.335938 185.605469 C 368.226562 185.605469 366.441406 187.007812 365.867188 188.929688 L 293.222656 188.929688 L 279.230469 202.914062 L 246.757812 202.914062 L 246.757812 205.417969 L 280.269531 205.417969 L 294.257812 191.4375 L 365.820312 191.4375 C 366.339844 193.445312 368.164062 194.929688 370.335938 194.929688 C 372.910156 194.929688 375 192.84375 375 190.269531 C 375 187.695312 372.910156 185.605469 370.335938 185.605469 Z M 302.234375 206.390625 C 299.199219 206.390625 296.617188 208.339844 295.675781 211.058594 L 290.367188 211.058594 L 277.214844 224.207031 L 251.800781 224.207031 L 241.359375 213.769531 L 214.796875 213.769531 L 199.546875 217.945312 L 239.632812 217.945312 L 250.070312 228.378906 L 278.945312 228.378906 L 292.097656 215.230469 L 295.558594 215.230469 C 296.386719 218.136719 299.0625 220.265625 302.234375 220.265625 C 306.066406 220.265625 309.171875 217.15625 309.171875 213.328125 C 309.171875 209.496094 306.066406 206.390625 302.234375 206.390625 Z M 94.730469 205.417969 L 128.238281 205.417969 L 128.238281 202.914062 L 95.765625 202.914062 L 81.777344 188.929688 L 9.132812 188.929688 C 8.554688 187.007812 6.773438 185.605469 4.664062 185.605469 C 2.085938 185.605469 0 187.695312 0 190.269531 C 0 192.84375 2.085938 194.929688 4.664062 194.929688 C 6.835938 194.929688 8.660156 193.445312 9.179688 191.4375 L 80.742188 191.4375 Z M 230.128906 194.886719 L 240.566406 184.453125 L 252.847656 184.453125 C 253.699219 187.265625 256.3125 189.316406 259.40625 189.316406 C 263.1875 189.316406 266.257812 186.253906 266.257812 182.46875 C 266.257812 178.6875 263.1875 175.621094 259.40625 175.621094 C 256.390625 175.621094 253.832031 177.570312 252.917969 180.277344 L 238.839844 180.277344 L 228.398438 190.714844 L 227.007812 190.714844 C 226.191406 192.15625 225.300781 193.550781 224.335938 194.886719 Z M 228.398438 146.140625 L 238.839844 156.578125 L 252.917969 156.578125 C 253.832031 159.28125 256.390625 161.230469 259.40625 161.230469 C 263.1875 161.230469 266.257812 158.167969 266.257812 154.386719 C 266.257812 150.605469 263.1875 147.539062 259.40625 147.539062 C 256.3125 147.539062 253.699219 149.589844 252.847656 152.402344 L 240.566406 152.402344 L 230.128906 141.96875 L 224.335938 141.96875 C 225.300781 143.304688 226.191406 144.699219 227.007812 146.140625 Z M 280.269531 131.433594 L 246.757812 131.433594 L 246.757812 133.9375 L 279.230469 133.9375 L 293.222656 147.925781 L 365.867188 147.925781 C 366.441406 149.847656 368.226562 151.25 370.335938 151.25 C 372.910156 151.25 375 149.164062 375 146.589844 C 375 144.011719 372.910156 141.925781 370.335938 141.925781 C 368.164062 141.925781 366.339844 143.410156 365.820312 145.417969 L 294.257812 145.417969 Z M 115.59375 161.230469 C 118.609375 161.230469 121.167969 159.28125 122.082031 156.578125 L 136.160156 156.578125 L 146.601562 146.140625 L 147.992188 146.140625 C 148.808594 144.699219 149.699219 143.304688 150.664062 141.96875 L 144.871094 141.96875 L 134.429688 152.402344 L 122.152344 152.402344 C 121.300781 149.589844 118.6875 147.539062 115.59375 147.539062 C 111.808594 147.539062 108.742188 150.605469 108.742188 154.386719 C 108.742188 158.167969 111.808594 161.230469 115.59375 161.230469 Z M 160.203125 128.746094 L 142.417969 128.746094 L 129.261719 141.898438 L 107.335938 141.898438 L 89.167969 160.058594 L 36.234375 160.058594 C 35.648438 158.148438 33.875 156.761719 31.773438 156.761719 C 29.195312 156.761719 27.109375 158.847656 27.109375 161.421875 C 27.109375 163.996094 29.195312 166.082031 31.773438 166.082031 C 33.953125 166.082031 35.785156 164.585938 36.292969 162.5625 L 90.203125 162.5625 L 108.371094 144.402344 L 130.296875 144.402344 L 143.453125 131.25 L 160.203125 131.25 Z M 90.203125 174.292969 L 36.292969 174.292969 C 35.785156 172.269531 33.953125 170.773438 31.773438 170.773438 C 29.195312 170.773438 27.109375 172.859375 27.109375 175.433594 C 27.109375 178.007812 29.195312 180.09375 31.773438 180.09375 C 33.875 180.09375 35.648438 178.707031 36.234375 176.796875 L 89.167969 176.796875 L 107.335938 194.957031 L 129.261719 194.957031 L 142.417969 208.109375 L 160.203125 208.109375 L 160.203125 205.605469 L 143.453125 205.605469 L 130.296875 192.453125 L 108.371094 192.453125 Z M 214.796875 208.109375 L 232.582031 208.109375 L 245.738281 194.957031 L 267.664062 194.957031 L 285.832031 176.796875 L 338.765625 176.796875 C 339.351562 178.707031 341.128906 180.09375 343.226562 180.09375 C 345.804688 180.09375 347.890625 178.007812 347.890625 175.433594 C 347.890625 172.859375 345.804688 170.773438 343.226562 170.773438 C 341.042969 170.773438 339.214844 172.269531 338.707031 174.292969 L 284.796875 174.292969 L 266.628906 192.453125 L 244.699219 192.453125 L 231.542969 205.605469 L 214.796875 205.605469 Z M 115.59375 189.316406 C 118.6875 189.316406 121.300781 187.265625 122.152344 184.453125 L 134.429688 184.453125 L 144.871094 194.886719 L 150.664062 194.886719 C 149.699219 193.550781 148.808594 192.15625 147.992188 190.714844 L 146.601562 190.714844 L 136.160156 180.277344 L 122.082031 180.277344 C 121.167969 177.570312 118.609375 175.621094 115.59375 175.621094 C 111.808594 175.621094 108.742188 178.6875 108.742188 182.46875 C 108.742188 186.253906 111.808594 189.316406 115.59375 189.316406 " clip-rule="nonzero"/></clipPath><linearGradient x1="0.0000000024576" gradientTransform="matrix(374.999991, 0, 0, 374.853541, 0.0000045, 168.426866)" y1="0" x2="0.999998" gradientUnits="userSpaceOnUse" y2="0" id="420313bd49"><stop stop-opacity="1" stop-color="rgb(31.799316%, 67.799377%, 89.7995%)" offset="0"/><stop stop-opacity="1" stop-color="rgb(31.608582%, 67.655945%, 89.608765%)" offset="0.0078125"/><stop stop-opacity="1" stop-color="rgb(31.227112%, 67.324829%, 89.408875%)" offset="0.015625"/><stop stop-opacity="1" stop-color="rgb(31.018066%, 66.896057%, 89.199829%)" offset="0.0195312"/><stop stop-opacity="1" stop-color="rgb(30.999756%, 66.654968%, 88.999939%)" offset="0.0234375"/><stop stop-opacity="1" stop-color="rgb(30.999756%, 66.27655%, 88.798523%)" offset="0.0273438"/><stop stop-opacity="1" stop-color="rgb(30.999756%, 65.899658%, 88.598633%)" offset="0.03125"/><stop stop-opacity="1" stop-color="rgb(30.799866%, 65.699768%, 88.398743%)" offset="0.0351562"/><stop stop-opacity="1" stop-color="rgb(30.599976%, 65.499878%, 88.198853%)" offset="0.0390625"/><stop stop-opacity="1" stop-color="rgb(30.599976%, 65.306091%, 88.005066%)" offset="0.046875"/><stop stop-opacity="1" stop-color="rgb(30.599976%, 64.92157%, 87.805176%)" offset="0.0546875"/><stop stop-opacity="1" stop-color="rgb(30.599976%, 64.5401%, 87.649536%)" offset="0.0625"/><stop stop-opacity="1" stop-color="rgb(30.383301%, 64.108276%, 87.298584%)" offset="0.0664062"/><stop stop-opacity="1" stop-color="rgb(30.168152%, 63.868713%, 87.098694%)" offset="0.0703125"/><stop stop-opacity="1" stop-color="rgb(29.983521%, 63.677979%, 87.09259%)" offset="0.078125"/><stop stop-opacity="1" stop-color="rgb(29.798889%, 63.096619%, 86.8927%)" offset="0.0820313"/><stop stop-opacity="1" stop-color="rgb(29.798889%, 62.705994%, 86.698914%)" offset="0.0859375"/><stop stop-opacity="1" stop-color="rgb(29.798889%, 62.561035%, 86.51123%)" offset="0.09375"/><stop stop-opacity="1" stop-color="rgb(29.598999%, 62.229919%, 86.31134%)" offset="0.0976562"/><stop stop-opacity="1" stop-color="rgb(29.399109%, 62.043762%, 86.299133%)" offset="0.101562"/><stop stop-opacity="1" stop-color="rgb(29.399109%, 61.820984%, 86.099243%)" offset="0.105469"/><stop stop-opacity="1" stop-color="rgb(29.399109%, 61.599731%, 85.899353%)" offset="0.109375"/><stop stop-opacity="1" stop-color="rgb(29.389954%, 61.399841%, 85.699463%)" offset="0.113281"/><stop stop-opacity="1" stop-color="rgb(29.380798%, 61.199951%, 85.499573%)" offset="0.117188"/><stop stop-opacity="1" stop-color="rgb(29.190063%, 60.998535%, 85.299683%)" offset="0.121094"/><stop stop-opacity="1" stop-color="rgb(28.999329%, 60.798645%, 85.099792%)" offset="0.125"/><stop stop-opacity="1" stop-color="rgb(28.999329%, 60.60791%, 85.099792%)" offset="0.132812"/><stop stop-opacity="1" stop-color="rgb(28.999329%, 60.20813%, 84.898376%)" offset="0.136719"/><stop stop-opacity="1" stop-color="rgb(28.999329%, 59.999084%, 84.698486%)" offset="0.140625"/><stop stop-opacity="1" stop-color="rgb(28.799438%, 59.776306%, 84.498596%)" offset="0.144531"/><stop stop-opacity="1" stop-color="rgb(28.599548%, 59.555054%, 84.298706%)" offset="0.148437"/><stop stop-opacity="1" stop-color="rgb(28.399658%, 59.176636%, 84.286499%)" offset="0.152344"/><stop stop-opacity="1" stop-color="rgb(28.199768%, 58.799744%, 84.274292%)" offset="0.15625"/><stop stop-opacity="1" stop-color="rgb(28.199768%, 58.599854%, 84.086609%)" offset="0.160156"/><stop stop-opacity="1" stop-color="rgb(28.199768%, 58.399963%, 83.898926%)" offset="0.164063"/><stop stop-opacity="1" stop-color="rgb(28.199768%, 58.206177%, 83.705139%)" offset="0.171875"/><stop stop-opacity="1" stop-color="rgb(28.199768%, 57.821655%, 83.505249%)" offset="0.179688"/><stop stop-opacity="1" stop-color="rgb(27.999878%, 57.48291%, 83.299255%)" offset="0.183594"/><stop stop-opacity="1" stop-color="rgb(27.799988%, 57.336426%, 83.099365%)" offset="0.1875"/><stop stop-opacity="1" stop-color="rgb(27.799988%, 57.116699%, 82.899475%)" offset="0.191406"/><stop stop-opacity="1" stop-color="rgb(27.799988%, 56.898499%, 82.699585%)" offset="0.195312"/><stop stop-opacity="1" stop-color="rgb(27.799988%, 56.698608%, 82.695007%)" offset="0.199219"/><stop stop-opacity="1" stop-color="rgb(27.799988%, 56.498718%, 82.69043%)" offset="0.203125"/><stop stop-opacity="1" stop-color="rgb(27.651978%, 56.30188%, 82.543945%)" offset="0.207031"/><stop stop-opacity="1" stop-color="rgb(27.503967%, 56.105042%, 82.398987%)" offset="0.210937"/><stop stop-opacity="1" stop-color="rgb(27.500916%, 55.9021%, 82.199097%)" offset="0.214844"/><stop stop-opacity="1" stop-color="rgb(27.49939%, 55.699158%, 81.999207%)" offset="0.21875"/><stop stop-opacity="1" stop-color="rgb(27.49939%, 55.499268%, 81.820679%)" offset="0.222656"/><stop stop-opacity="1" stop-color="rgb(27.49939%, 55.299377%, 81.643677%)" offset="0.226563"/><stop stop-opacity="1" stop-color="rgb(27.2995%, 55.079651%, 81.602478%)" offset="0.230469"/><stop stop-opacity="1" stop-color="rgb(27.099609%, 54.86145%, 81.561279%)" offset="0.234375"/><stop stop-opacity="1" stop-color="rgb(27.090454%, 54.670715%, 81.3797%)" offset="0.242188"/><stop stop-opacity="1" stop-color="rgb(26.890564%, 54.289246%, 81.199646%)" offset="0.25"/><stop stop-opacity="1" stop-color="rgb(26.699829%, 53.898621%, 80.999756%)" offset="0.253906"/><stop stop-opacity="1" stop-color="rgb(26.699829%, 53.69873%, 80.799866%)" offset="0.257812"/><stop stop-opacity="1" stop-color="rgb(26.699829%, 53.49884%, 80.618286%)" offset="0.261719"/><stop stop-opacity="1" stop-color="rgb(26.699829%, 53.29895%, 80.436707%)" offset="0.265625"/><stop stop-opacity="1" stop-color="rgb(26.676941%, 53.076172%, 80.395508%)" offset="0.269531"/><stop stop-opacity="1" stop-color="rgb(26.655579%, 52.854919%, 80.355835%)" offset="0.273438"/><stop stop-opacity="1" stop-color="rgb(26.477051%, 52.526855%, 80.1651%)" offset="0.277344"/><stop stop-opacity="1" stop-color="rgb(26.298523%, 52.198792%, 79.974365%)" offset="0.28125"/><stop stop-opacity="1" stop-color="rgb(26.298523%, 51.998901%, 79.78363%)" offset="0.285156"/><stop stop-opacity="1" stop-color="rgb(26.298523%, 51.799011%, 79.592896%)" offset="0.289062"/><stop stop-opacity="1" stop-color="rgb(26.104736%, 51.605225%, 79.396057%)" offset="0.292969"/><stop stop-opacity="1" stop-color="rgb(25.912476%, 51.411438%, 79.199219%)" offset="0.296875"/><stop stop-opacity="1" stop-color="rgb(25.904846%, 51.220703%, 79.199219%)" offset="0.304688"/><stop stop-opacity="1" stop-color="rgb(25.723267%, 50.839233%, 78.999329%)" offset="0.308594"/><stop stop-opacity="1" stop-color="rgb(25.549316%, 50.650024%, 78.799438%)" offset="0.3125"/><stop stop-opacity="1" stop-color="rgb(25.523376%, 50.424194%, 78.599548%)" offset="0.316406"/><stop stop-opacity="1" stop-color="rgb(25.498962%, 50.19989%, 78.399658%)" offset="0.320312"/><stop stop-opacity="1" stop-color="rgb(25.498962%, 50.192261%, 78.399658%)" offset="0.328125"/><stop stop-opacity="1" stop-color="rgb(25.498962%, 49.992371%, 78.20282%)" offset="0.332031"/><stop stop-opacity="1" stop-color="rgb(25.498962%, 49.798584%, 78.005981%)" offset="0.335938"/><stop stop-opacity="1" stop-color="rgb(25.311279%, 49.598694%, 78.00293%)" offset="0.339844"/><stop stop-opacity="1" stop-color="rgb(25.123596%, 49.398804%, 77.999878%)" offset="0.34375"/><stop stop-opacity="1" stop-color="rgb(25.111389%, 49.198914%, 77.798462%)" offset="0.347656"/><stop stop-opacity="1" stop-color="rgb(25.099182%, 48.999023%, 77.598572%)" offset="0.351562"/><stop stop-opacity="1" stop-color="rgb(25.099182%, 48.779297%, 77.449036%)" offset="0.355469"/><stop stop-opacity="1" stop-color="rgb(25.099182%, 48.561096%, 77.2995%)" offset="0.359375"/><stop stop-opacity="1" stop-color="rgb(25.090027%, 48.179626%, 77.099609%)" offset="0.363281"/><stop stop-opacity="1" stop-color="rgb(25.080872%, 47.799683%, 76.899719%)" offset="0.367188"/><stop stop-opacity="1" stop-color="rgb(24.890137%, 47.648621%, 76.899719%)" offset="0.375"/><stop stop-opacity="1" stop-color="rgb(24.508667%, 47.499084%, 76.699829%)" offset="0.378906"/><stop stop-opacity="1" stop-color="rgb(24.317932%, 47.499084%, 76.499939%)" offset="0.382812"/><stop stop-opacity="1" stop-color="rgb(24.308777%, 47.299194%, 76.318359%)" offset="0.386719"/><stop stop-opacity="1" stop-color="rgb(24.299622%, 47.099304%, 76.13678%)" offset="0.390625"/><stop stop-opacity="1" stop-color="rgb(24.299622%, 46.876526%, 76.116943%)" offset="0.394531"/><stop stop-opacity="1" stop-color="rgb(24.299622%, 46.655273%, 76.098633%)" offset="0.398438"/><stop stop-opacity="1" stop-color="rgb(24.299622%, 46.464539%, 75.898743%)" offset="0.402344"/><stop stop-opacity="1" stop-color="rgb(24.299622%, 46.273804%, 75.698853%)" offset="0.40625"/><stop stop-opacity="1" stop-color="rgb(24.29657%, 46.083069%, 75.695801%)" offset="0.414062"/><stop stop-opacity="1" stop-color="rgb(24.09668%, 45.695496%, 75.495911%)" offset="0.417969"/><stop stop-opacity="1" stop-color="rgb(23.899841%, 45.498657%, 75.299072%)" offset="0.421875"/><stop stop-opacity="1" stop-color="rgb(23.899841%, 45.298767%, 75.114441%)" offset="0.425781"/><stop stop-opacity="1" stop-color="rgb(23.899841%, 45.098877%, 74.931335%)" offset="0.429688"/><stop stop-opacity="1" stop-color="rgb(23.899841%, 44.898987%, 74.740601%)" offset="0.433594"/><stop stop-opacity="1" stop-color="rgb(23.899841%, 44.699097%, 74.549866%)" offset="0.4375"/><stop stop-opacity="1" stop-color="rgb(23.883057%, 44.483948%, 74.508667%)" offset="0.441406"/><stop stop-opacity="1" stop-color="rgb(23.867798%, 44.268799%, 74.467468%)" offset="0.445312"/><stop stop-opacity="1" stop-color="rgb(23.683167%, 44.078064%, 74.282837%)" offset="0.453125"/><stop stop-opacity="1" stop-color="rgb(23.301697%, 43.693542%, 73.902893%)" offset="0.457031"/><stop stop-opacity="1" stop-color="rgb(23.104858%, 43.499756%, 73.706055%)" offset="0.460938"/><stop stop-opacity="1" stop-color="rgb(23.101807%, 43.312073%, 73.703003%)" offset="0.46875"/><stop stop-opacity="1" stop-color="rgb(23.098755%, 42.933655%, 73.521423%)" offset="0.476562"/><stop stop-opacity="1" stop-color="rgb(23.098755%, 42.570496%, 73.301697%)" offset="0.484375"/><stop stop-opacity="1" stop-color="rgb(23.098755%, 42.199707%, 73.080444%)" offset="0.488281"/><stop stop-opacity="1" stop-color="rgb(23.098755%, 41.999817%, 72.898865%)" offset="0.492188"/><stop stop-opacity="1" stop-color="rgb(23.098755%, 41.799927%, 72.698975%)" offset="0.496094"/><stop stop-opacity="1" stop-color="rgb(23.098755%, 41.600037%, 72.499084%)" offset="0.5"/><stop stop-opacity="1" stop-color="rgb(22.898865%, 41.409302%, 72.499084%)" offset="0.503906"/><stop stop-opacity="1" stop-color="rgb(22.698975%, 41.218567%, 72.499084%)" offset="0.507812"/><stop stop-opacity="1" stop-color="rgb(22.698975%, 41.027832%, 72.348022%)" offset="0.515625"/><stop stop-opacity="1" stop-color="rgb(22.549438%, 40.795898%, 71.998596%)" offset="0.519531"/><stop stop-opacity="1" stop-color="rgb(22.399902%, 40.756226%, 71.798706%)" offset="0.523438"/><stop stop-opacity="1" stop-color="rgb(22.399902%, 40.565491%, 71.786499%)" offset="0.53125"/><stop stop-opacity="1" stop-color="rgb(22.399902%, 40.184021%, 71.586609%)" offset="0.539062"/><stop stop-opacity="1" stop-color="rgb(22.399902%, 39.796448%, 71.205139%)" offset="0.542969"/><stop stop-opacity="1" stop-color="rgb(22.399902%, 39.599609%, 71.011353%)" offset="0.546875"/><stop stop-opacity="1" stop-color="rgb(22.198486%, 39.399719%, 71.005249%)" offset="0.550781"/><stop stop-opacity="1" stop-color="rgb(21.998596%, 39.199829%, 70.999146%)" offset="0.554688"/><stop stop-opacity="1" stop-color="rgb(21.998596%, 38.998413%, 70.799255%)" offset="0.558594"/><stop stop-opacity="1" stop-color="rgb(21.998596%, 38.798523%, 70.599365%)" offset="0.5625"/><stop stop-opacity="1" stop-color="rgb(21.998596%, 38.598633%, 70.584106%)" offset="0.566406"/><stop stop-opacity="1" stop-color="rgb(21.998596%, 38.398743%, 70.568848%)" offset="0.570312"/><stop stop-opacity="1" stop-color="rgb(21.998596%, 38.198853%, 70.384216%)" offset="0.574219"/><stop stop-opacity="1" stop-color="rgb(21.998596%, 37.998962%, 70.199585%)" offset="0.578125"/><stop stop-opacity="1" stop-color="rgb(21.998596%, 37.802124%, 70.002747%)" offset="0.582031"/><stop stop-opacity="1" stop-color="rgb(21.998596%, 37.605286%, 69.805908%)" offset="0.585938"/><stop stop-opacity="1" stop-color="rgb(21.798706%, 37.602234%, 69.802856%)" offset="0.589844"/><stop stop-opacity="1" stop-color="rgb(21.598816%, 37.599182%, 69.799805%)" offset="0.59375"/><stop stop-opacity="1" stop-color="rgb(21.420288%, 37.44812%, 69.598389%)" offset="0.597656"/><stop stop-opacity="1" stop-color="rgb(21.243286%, 37.298584%, 69.398499%)" offset="0.601562"/><stop stop-opacity="1" stop-color="rgb(21.220398%, 37.080383%, 69.198608%)" offset="0.605469"/><stop stop-opacity="1" stop-color="rgb(21.199036%, 36.862183%, 68.998718%)" offset="0.609375"/><stop stop-opacity="1" stop-color="rgb(21.199036%, 36.671448%, 68.798828%)" offset="0.613281"/><stop stop-opacity="1" stop-color="rgb(21.199036%, 36.480713%, 68.598938%)" offset="0.617188"/><stop stop-opacity="1" stop-color="rgb(21.199036%, 36.289978%, 68.598938%)" offset="0.625"/><stop stop-opacity="1" stop-color="rgb(21.199036%, 35.908508%, 68.408203%)" offset="0.632812"/><stop stop-opacity="1" stop-color="rgb(21.199036%, 35.527039%, 68.208313%)" offset="0.640625"/><stop stop-opacity="1" stop-color="rgb(20.999146%, 35.295105%, 67.999268%)" offset="0.644531"/><stop stop-opacity="1" stop-color="rgb(20.799255%, 35.255432%, 67.799377%)" offset="0.648438"/><stop stop-opacity="1" stop-color="rgb(20.799255%, 35.064697%, 67.790222%)" offset="0.65625"/><stop stop-opacity="1" stop-color="rgb(20.799255%, 34.686279%, 67.63916%)" offset="0.664062"/><stop stop-opacity="1" stop-color="rgb(20.799255%, 34.30481%, 67.498779%)" offset="0.671875"/><stop stop-opacity="1" stop-color="rgb(20.599365%, 33.921814%, 67.298889%)" offset="0.675781"/><stop stop-opacity="1" stop-color="rgb(20.399475%, 33.731079%, 67.098999%)" offset="0.679688"/><stop stop-opacity="1" stop-color="rgb(20.399475%, 33.714294%, 66.899109%)" offset="0.683594"/><stop stop-opacity="1" stop-color="rgb(20.399475%, 33.699036%, 66.699219%)" offset="0.6875"/><stop stop-opacity="1" stop-color="rgb(20.399475%, 33.483887%, 66.499329%)" offset="0.691406"/><stop stop-opacity="1" stop-color="rgb(20.399475%, 33.268738%, 66.299438%)" offset="0.695312"/><stop stop-opacity="1" stop-color="rgb(20.393372%, 33.078003%, 66.293335%)" offset="0.703125"/><stop stop-opacity="1" stop-color="rgb(20.193481%, 32.693481%, 66.093445%)" offset="0.710938"/><stop stop-opacity="1" stop-color="rgb(19.999695%, 32.357788%, 65.899658%)" offset="0.71875"/><stop stop-opacity="1" stop-color="rgb(19.999695%, 32.029724%, 65.699768%)" offset="0.722656"/><stop stop-opacity="1" stop-color="rgb(19.999695%, 31.843567%, 65.499878%)" offset="0.726562"/><stop stop-opacity="1" stop-color="rgb(19.979858%, 31.802368%, 65.298462%)" offset="0.730469"/><stop stop-opacity="1" stop-color="rgb(19.961548%, 31.761169%, 65.098572%)" offset="0.734375"/><stop stop-opacity="1" stop-color="rgb(19.779968%, 31.570435%, 65.089417%)" offset="0.742188"/><stop stop-opacity="1" stop-color="rgb(19.599915%, 31.190491%, 64.889526%)" offset="0.75"/><stop stop-opacity="1" stop-color="rgb(19.599915%, 30.809021%, 64.508057%)" offset="0.757812"/><stop stop-opacity="1" stop-color="rgb(19.599915%, 30.427551%, 64.308167%)" offset="0.765625"/><stop stop-opacity="1" stop-color="rgb(19.577026%, 30.01709%, 64.099121%)" offset="0.769531"/><stop stop-opacity="1" stop-color="rgb(19.555664%, 29.798889%, 63.899231%)" offset="0.773438"/><stop stop-opacity="1" stop-color="rgb(19.377136%, 29.786682%, 63.887024%)" offset="0.78125"/><stop stop-opacity="1" stop-color="rgb(19.198608%, 29.586792%, 63.687134%)" offset="0.789062"/><stop stop-opacity="1" stop-color="rgb(19.198608%, 29.205322%, 63.499451%)" offset="0.796875"/><stop stop-opacity="1" stop-color="rgb(19.198608%, 29.005432%, 63.299561%)" offset="0.800781"/><stop stop-opacity="1" stop-color="rgb(19.198608%, 28.999329%, 63.09967%)" offset="0.804688"/><stop stop-opacity="1" stop-color="rgb(19.198608%, 28.799438%, 62.924194%)" offset="0.808594"/><stop stop-opacity="1" stop-color="rgb(19.198608%, 28.599548%, 62.748718%)" offset="0.8125"/><stop stop-opacity="1" stop-color="rgb(18.998718%, 28.382874%, 62.712097%)" offset="0.816406"/><stop stop-opacity="1" stop-color="rgb(18.798828%, 28.167725%, 62.675476%)" offset="0.820312"/><stop stop-opacity="1" stop-color="rgb(18.798828%, 27.983093%, 62.530518%)" offset="0.828125"/><stop stop-opacity="1" stop-color="rgb(18.798828%, 27.648926%, 62.193298%)" offset="0.84375"/><stop stop-opacity="1" stop-color="rgb(18.6203%, 27.2995%, 61.799622%)" offset="0.847656"/><stop stop-opacity="1" stop-color="rgb(18.443298%, 27.099609%, 61.599731%)" offset="0.851562"/><stop stop-opacity="1" stop-color="rgb(18.42041%, 26.899719%, 61.579895%)" offset="0.855469"/><stop stop-opacity="1" stop-color="rgb(18.399048%, 26.699829%, 61.561584%)" offset="0.859375"/><stop stop-opacity="1" stop-color="rgb(18.399048%, 26.689148%, 61.380005%)" offset="0.867188"/><stop stop-opacity="1" stop-color="rgb(18.399048%, 26.489258%, 61.199951%)" offset="0.875"/><stop stop-opacity="1" stop-color="rgb(18.399048%, 26.098633%, 60.998535%)" offset="0.878906"/><stop stop-opacity="1" stop-color="rgb(18.399048%, 25.898743%, 60.798645%)" offset="0.882812"/><stop stop-opacity="1" stop-color="rgb(18.399048%, 25.698853%, 60.617065%)" offset="0.886719"/><stop stop-opacity="1" stop-color="rgb(18.399048%, 25.498962%, 60.437012%)" offset="0.890625"/><stop stop-opacity="1" stop-color="rgb(18.199158%, 25.299072%, 60.395813%)" offset="0.894531"/><stop stop-opacity="1" stop-color="rgb(17.999268%, 25.099182%, 60.35614%)" offset="0.898438"/><stop stop-opacity="1" stop-color="rgb(17.999268%, 25.086975%, 60.177612%)" offset="0.90625"/><stop stop-opacity="1" stop-color="rgb(17.999268%, 24.887085%, 59.799194%)" offset="0.910156"/><stop stop-opacity="1" stop-color="rgb(17.999268%, 24.699402%, 59.599304%)" offset="0.914062"/><stop stop-opacity="1" stop-color="rgb(17.999268%, 24.505615%, 59.599304%)" offset="0.921875"/><stop stop-opacity="1" stop-color="rgb(17.999268%, 24.305725%, 59.414673%)" offset="0.929688"/><stop stop-opacity="1" stop-color="rgb(17.823792%, 24.099731%, 59.214783%)" offset="0.933594"/><stop stop-opacity="1" stop-color="rgb(17.649841%, 23.899841%, 59.199524%)" offset="0.9375"/><stop stop-opacity="1" stop-color="rgb(17.623901%, 23.698425%, 58.999634%)" offset="0.941406"/><stop stop-opacity="1" stop-color="rgb(17.599487%, 23.498535%, 58.799744%)" offset="0.945312"/><stop stop-opacity="1" stop-color="rgb(17.599487%, 23.298645%, 58.599854%)" offset="0.949219"/><stop stop-opacity="1" stop-color="rgb(17.599487%, 23.098755%, 58.399963%)" offset="0.953125"/><stop stop-opacity="1" stop-color="rgb(17.599487%, 23.098755%, 58.399963%)" offset="0.960938"/><stop stop-opacity="1" stop-color="rgb(17.459106%, 22.898865%, 58.21228%)" offset="0.964844"/><stop stop-opacity="1" stop-color="rgb(17.318726%, 22.698975%, 58.024597%)" offset="0.96875"/><stop stop-opacity="1" stop-color="rgb(17.308044%, 22.564697%, 58.010864%)" offset="0.976562"/><stop stop-opacity="1" stop-color="rgb(17.298889%, 22.415161%, 57.798767%)" offset="0.980469"/><stop stop-opacity="1" stop-color="rgb(17.298889%, 22.399902%, 57.598877%)" offset="0.984375"/><stop stop-opacity="1" stop-color="rgb(17.298889%, 22.198486%, 57.591248%)" offset="0.988281"/><stop stop-opacity="1" stop-color="rgb(17.298889%, 21.998596%, 57.585144%)" offset="0.992188"/><stop stop-opacity="1" stop-color="rgb(17.298889%, 21.998596%, 57.441711%)" offset="1"/></linearGradient><clipPath id="85066e7e11"><path d="M 133.40625 114.355469 L 241.59375 114.355469 L 241.59375 222.5 L 133.40625 222.5 Z M 133.40625 114.355469 " clip-rule="nonzero"/></clipPath><clipPath id="7da93351ad"><path d="M 187.5 208.371094 C 165.433594 208.371094 147.542969 190.488281 147.542969 168.425781 C 147.542969 146.367188 165.433594 128.484375 187.5 128.484375 C 209.566406 128.484375 227.457031 146.367188 227.457031 168.425781 C 227.457031 190.488281 209.566406 208.371094 187.5 208.371094 Z M 187.5 114.355469 C 157.625 114.355469 133.40625 138.566406 133.40625 168.425781 C 133.40625 198.289062 157.625 222.5 187.5 222.5 C 217.375 222.5 241.59375 198.289062 241.59375 168.425781 C 241.59375 138.566406 217.375 114.355469 187.5 114.355469 Z M 187.5 114.355469 " clip-rule="nonzero"/></clipPath><clipPath id="37f1c5786f"><path d="M 187.5 208.371094 C 165.433594 208.371094 147.542969 190.488281 147.542969 168.425781 C 147.542969 146.367188 165.433594 128.484375 187.5 128.484375 C 209.566406 128.484375 227.457031 146.367188 227.457031 168.425781 C 227.457031 190.488281 209.566406 208.371094 187.5 208.371094 Z M 187.5 114.355469 C 157.625 114.355469 133.40625 138.566406 133.40625 168.425781 C 133.40625 198.289062 157.625 222.5 187.5 222.5 C 217.375 222.5 241.59375 198.289062 241.59375 168.425781 C 241.59375 138.566406 217.375 114.355469 187.5 114.355469 " clip-rule="nonzero"/></clipPath><linearGradient x1="0.00000148302" gradientTransform="matrix(108.185521, 0, 0, 108.143269, 133.407243, 168.426866)" y1="0" x2="0.999991" gradientUnits="userSpaceOnUse" y2="0" id="17fef0123b"><stop stop-opacity="1" stop-color="rgb(31.799316%, 67.799377%, 89.7995%)" offset="0"/><stop stop-opacity="1" stop-color="rgb(31.608582%, 67.655945%, 89.608765%)" offset="0.0078125"/><stop stop-opacity="1" stop-color="rgb(31.227112%, 67.324829%, 89.408875%)" offset="0.015625"/><stop stop-opacity="1" stop-color="rgb(31.018066%, 66.896057%, 89.199829%)" offset="0.0195312"/><stop stop-opacity="1" stop-color="rgb(30.999756%, 66.654968%, 88.999939%)" offset="0.0234375"/><stop stop-opacity="1" stop-color="rgb(30.999756%, 66.27655%, 88.798523%)" offset="0.0273438"/><stop stop-opacity="1" stop-color="rgb(30.999756%, 65.899658%, 88.598633%)" offset="0.03125"/><stop stop-opacity="1" stop-color="rgb(30.799866%, 65.699768%, 88.398743%)" offset="0.0351562"/><stop stop-opacity="1" stop-color="rgb(30.599976%, 65.499878%, 88.198853%)" offset="0.0390625"/><stop stop-opacity="1" stop-color="rgb(30.599976%, 65.306091%, 88.005066%)" offset="0.046875"/><stop stop-opacity="1" stop-color="rgb(30.599976%, 64.92157%, 87.805176%)" offset="0.0546875"/><stop stop-opacity="1" stop-color="rgb(30.599976%, 64.5401%, 87.649536%)" offset="0.0625"/><stop stop-opacity="1" stop-color="rgb(30.383301%, 64.108276%, 87.298584%)" offset="0.0664062"/><stop stop-opacity="1" stop-color="rgb(30.168152%, 63.867188%, 87.098694%)" offset="0.0703125"/><stop stop-opacity="1" stop-color="rgb(29.983521%, 63.676453%, 87.09259%)" offset="0.078125"/><stop stop-opacity="1" stop-color="rgb(29.798889%, 63.096619%, 86.8927%)" offset="0.0820312"/><stop stop-opacity="1" stop-color="rgb(29.798889%, 62.705994%, 86.698914%)" offset="0.0859375"/><stop stop-opacity="1" stop-color="rgb(29.798889%, 62.561035%, 86.51123%)" offset="0.09375"/><stop stop-opacity="1" stop-color="rgb(29.598999%, 62.229919%, 86.31134%)" offset="0.0976563"/><stop stop-opacity="1" stop-color="rgb(29.399109%, 62.042236%, 86.299133%)" offset="0.101563"/><stop stop-opacity="1" stop-color="rgb(29.399109%, 61.820984%, 86.099243%)" offset="0.105469"/><stop stop-opacity="1" stop-color="rgb(29.399109%, 61.599731%, 85.899353%)" offset="0.109375"/><stop stop-opacity="1" stop-color="rgb(29.389954%, 61.399841%, 85.699463%)" offset="0.113281"/><stop stop-opacity="1" stop-color="rgb(29.380798%, 61.199951%, 85.499573%)" offset="0.117188"/><stop stop-opacity="1" stop-color="rgb(29.190063%, 60.998535%, 85.299683%)" offset="0.121094"/><stop stop-opacity="1" stop-color="rgb(28.999329%, 60.798645%, 85.099792%)" offset="0.125"/><stop stop-opacity="1" stop-color="rgb(28.999329%, 60.60791%, 85.099792%)" offset="0.132812"/><stop stop-opacity="1" stop-color="rgb(28.999329%, 60.20813%, 84.898376%)" offset="0.136719"/><stop stop-opacity="1" stop-color="rgb(28.999329%, 59.999084%, 84.698486%)" offset="0.140625"/><stop stop-opacity="1" stop-color="rgb(28.799438%, 59.776306%, 84.498596%)" offset="0.144531"/><stop stop-opacity="1" stop-color="rgb(28.599548%, 59.555054%, 84.298706%)" offset="0.148438"/><stop stop-opacity="1" stop-color="rgb(28.399658%, 59.176636%, 84.286499%)" offset="0.152344"/><stop stop-opacity="1" stop-color="rgb(28.199768%, 58.799744%, 84.274292%)" offset="0.15625"/><stop stop-opacity="1" stop-color="rgb(28.199768%, 58.599854%, 84.086609%)" offset="0.160156"/><stop stop-opacity="1" stop-color="rgb(28.199768%, 58.399963%, 83.898926%)" offset="0.164062"/><stop stop-opacity="1" stop-color="rgb(28.199768%, 58.206177%, 83.705139%)" offset="0.171875"/><stop stop-opacity="1" stop-color="rgb(28.199768%, 57.821655%, 83.505249%)" offset="0.179687"/><stop stop-opacity="1" stop-color="rgb(27.999878%, 57.48291%, 83.299255%)" offset="0.183594"/><stop stop-opacity="1" stop-color="rgb(27.799988%, 57.336426%, 83.099365%)" offset="0.1875"/><stop stop-opacity="1" stop-color="rgb(27.799988%, 57.116699%, 82.899475%)" offset="0.191406"/><stop stop-opacity="1" stop-color="rgb(27.799988%, 56.898499%, 82.699585%)" offset="0.195313"/><stop stop-opacity="1" stop-color="rgb(27.799988%, 56.698608%, 82.695007%)" offset="0.199219"/><stop stop-opacity="1" stop-color="rgb(27.799988%, 56.498718%, 82.69043%)" offset="0.203125"/><stop stop-opacity="1" stop-color="rgb(27.651978%, 56.30188%, 82.543945%)" offset="0.207031"/><stop stop-opacity="1" stop-color="rgb(27.503967%, 56.105042%, 82.398987%)" offset="0.210938"/><stop stop-opacity="1" stop-color="rgb(27.500916%, 55.9021%, 82.199097%)" offset="0.214844"/><stop stop-opacity="1" stop-color="rgb(27.49939%, 55.699158%, 81.999207%)" offset="0.21875"/><stop stop-opacity="1" stop-color="rgb(27.49939%, 55.499268%, 81.820679%)" offset="0.222656"/><stop stop-opacity="1" stop-color="rgb(27.49939%, 55.299377%, 81.643677%)" offset="0.226562"/><stop stop-opacity="1" stop-color="rgb(27.2995%, 55.079651%, 81.602478%)" offset="0.230469"/><stop stop-opacity="1" stop-color="rgb(27.099609%, 54.86145%, 81.561279%)" offset="0.234375"/><stop stop-opacity="1" stop-color="rgb(27.090454%, 54.670715%, 81.3797%)" offset="0.242188"/><stop stop-opacity="1" stop-color="rgb(26.890564%, 54.289246%, 81.199646%)" offset="0.25"/><stop stop-opacity="1" stop-color="rgb(26.699829%, 53.898621%, 80.999756%)" offset="0.253906"/><stop stop-opacity="1" stop-color="rgb(26.699829%, 53.69873%, 80.799866%)" offset="0.257812"/><stop stop-opacity="1" stop-color="rgb(26.699829%, 53.49884%, 80.618286%)" offset="0.261719"/><stop stop-opacity="1" stop-color="rgb(26.699829%, 53.29895%, 80.436707%)" offset="0.265625"/><stop stop-opacity="1" stop-color="rgb(26.676941%, 53.076172%, 80.395508%)" offset="0.269531"/><stop stop-opacity="1" stop-color="rgb(26.655579%, 52.854919%, 80.355835%)" offset="0.273438"/><stop stop-opacity="1" stop-color="rgb(26.477051%, 52.526855%, 80.1651%)" offset="0.277344"/><stop stop-opacity="1" stop-color="rgb(26.298523%, 52.198792%, 79.974365%)" offset="0.28125"/><stop stop-opacity="1" stop-color="rgb(26.298523%, 51.998901%, 79.78363%)" offset="0.285156"/><stop stop-opacity="1" stop-color="rgb(26.298523%, 51.799011%, 79.592896%)" offset="0.289062"/><stop stop-opacity="1" stop-color="rgb(26.104736%, 51.605225%, 79.396057%)" offset="0.292969"/><stop stop-opacity="1" stop-color="rgb(25.912476%, 51.411438%, 79.199219%)" offset="0.296875"/><stop stop-opacity="1" stop-color="rgb(25.904846%, 51.220703%, 79.199219%)" offset="0.304688"/><stop stop-opacity="1" stop-color="rgb(25.723267%, 50.839233%, 78.999329%)" offset="0.308594"/><stop stop-opacity="1" stop-color="rgb(25.549316%, 50.650024%, 78.799438%)" offset="0.3125"/><stop stop-opacity="1" stop-color="rgb(25.523376%, 50.424194%, 78.599548%)" offset="0.316406"/><stop stop-opacity="1" stop-color="rgb(25.498962%, 50.19989%, 78.399658%)" offset="0.320312"/><stop stop-opacity="1" stop-color="rgb(25.498962%, 50.193787%, 78.399658%)" offset="0.328125"/><stop stop-opacity="1" stop-color="rgb(25.498962%, 49.992371%, 78.20282%)" offset="0.332031"/><stop stop-opacity="1" stop-color="rgb(25.498962%, 49.798584%, 78.005981%)" offset="0.335937"/><stop stop-opacity="1" stop-color="rgb(25.311279%, 49.598694%, 78.00293%)" offset="0.339844"/><stop stop-opacity="1" stop-color="rgb(25.125122%, 49.398804%, 77.999878%)" offset="0.34375"/><stop stop-opacity="1" stop-color="rgb(25.111389%, 49.198914%, 77.798462%)" offset="0.347656"/><stop stop-opacity="1" stop-color="rgb(25.099182%, 48.999023%, 77.598572%)" offset="0.351562"/><stop stop-opacity="1" stop-color="rgb(25.099182%, 48.780823%, 77.449036%)" offset="0.355469"/><stop stop-opacity="1" stop-color="rgb(25.099182%, 48.562622%, 77.2995%)" offset="0.359375"/><stop stop-opacity="1" stop-color="rgb(25.090027%, 48.181152%, 77.099609%)" offset="0.363281"/><stop stop-opacity="1" stop-color="rgb(25.080872%, 47.799683%, 76.899719%)" offset="0.367187"/><stop stop-opacity="1" stop-color="rgb(24.890137%, 47.648621%, 76.899719%)" offset="0.375"/><stop stop-opacity="1" stop-color="rgb(24.508667%, 47.499084%, 76.699829%)" offset="0.378906"/><stop stop-opacity="1" stop-color="rgb(24.317932%, 47.499084%, 76.499939%)" offset="0.382813"/><stop stop-opacity="1" stop-color="rgb(24.308777%, 47.299194%, 76.318359%)" offset="0.386719"/><stop stop-opacity="1" stop-color="rgb(24.299622%, 47.099304%, 76.13678%)" offset="0.390625"/><stop stop-opacity="1" stop-color="rgb(24.299622%, 46.876526%, 76.116943%)" offset="0.394531"/><stop stop-opacity="1" stop-color="rgb(24.299622%, 46.655273%, 76.098633%)" offset="0.398438"/><stop stop-opacity="1" stop-color="rgb(24.299622%, 46.464539%, 75.898743%)" offset="0.402344"/><stop stop-opacity="1" stop-color="rgb(24.299622%, 46.273804%, 75.698853%)" offset="0.40625"/><stop stop-opacity="1" stop-color="rgb(24.29657%, 46.083069%, 75.695801%)" offset="0.414063"/><stop stop-opacity="1" stop-color="rgb(24.09668%, 45.695496%, 75.495911%)" offset="0.417969"/><stop stop-opacity="1" stop-color="rgb(23.899841%, 45.498657%, 75.299072%)" offset="0.421875"/><stop stop-opacity="1" stop-color="rgb(23.899841%, 45.298767%, 75.114441%)" offset="0.425781"/><stop stop-opacity="1" stop-color="rgb(23.899841%, 45.098877%, 74.931335%)" offset="0.429688"/><stop stop-opacity="1" stop-color="rgb(23.899841%, 44.898987%, 74.740601%)" offset="0.433594"/><stop stop-opacity="1" stop-color="rgb(23.899841%, 44.699097%, 74.549866%)" offset="0.4375"/><stop stop-opacity="1" stop-color="rgb(23.883057%, 44.483948%, 74.508667%)" offset="0.441406"/><stop stop-opacity="1" stop-color="rgb(23.867798%, 44.268799%, 74.468994%)" offset="0.445312"/><stop stop-opacity="1" stop-color="rgb(23.683167%, 44.078064%, 74.284363%)" offset="0.453125"/><stop stop-opacity="1" stop-color="rgb(23.301697%, 43.693542%, 73.902893%)" offset="0.457031"/><stop stop-opacity="1" stop-color="rgb(23.106384%, 43.499756%, 73.706055%)" offset="0.460938"/><stop stop-opacity="1" stop-color="rgb(23.101807%, 43.312073%, 73.703003%)" offset="0.46875"/><stop stop-opacity="1" stop-color="rgb(23.098755%, 42.933655%, 73.521423%)" offset="0.476562"/><stop stop-opacity="1" stop-color="rgb(23.098755%, 42.570496%, 73.301697%)" offset="0.484375"/><stop stop-opacity="1" stop-color="rgb(23.098755%, 42.199707%, 73.080444%)" offset="0.488281"/><stop stop-opacity="1" stop-color="rgb(23.098755%, 41.999817%, 72.898865%)" offset="0.492188"/><stop stop-opacity="1" stop-color="rgb(23.098755%, 41.799927%, 72.698975%)" offset="0.496094"/><stop stop-opacity="1" stop-color="rgb(23.098755%, 41.600037%, 72.499084%)" offset="0.5"/><stop stop-opacity="1" stop-color="rgb(22.898865%, 41.409302%, 72.499084%)" offset="0.503906"/><stop stop-opacity="1" stop-color="rgb(22.698975%, 41.218567%, 72.499084%)" offset="0.507812"/><stop stop-opacity="1" stop-color="rgb(22.698975%, 41.027832%, 72.348022%)" offset="0.515625"/><stop stop-opacity="1" stop-color="rgb(22.549438%, 40.795898%, 71.998596%)" offset="0.519531"/><stop stop-opacity="1" stop-color="rgb(22.399902%, 40.756226%, 71.798706%)" offset="0.523438"/><stop stop-opacity="1" stop-color="rgb(22.399902%, 40.565491%, 71.786499%)" offset="0.53125"/><stop stop-opacity="1" stop-color="rgb(22.399902%, 40.184021%, 71.586609%)" offset="0.539062"/><stop stop-opacity="1" stop-color="rgb(22.399902%, 39.796448%, 71.205139%)" offset="0.542969"/><stop stop-opacity="1" stop-color="rgb(22.399902%, 39.599609%, 71.012878%)" offset="0.546875"/><stop stop-opacity="1" stop-color="rgb(22.198486%, 39.399719%, 71.005249%)" offset="0.550781"/><stop stop-opacity="1" stop-color="rgb(21.998596%, 39.199829%, 70.999146%)" offset="0.554688"/><stop stop-opacity="1" stop-color="rgb(21.998596%, 38.998413%, 70.799255%)" offset="0.558594"/><stop stop-opacity="1" stop-color="rgb(21.998596%, 38.798523%, 70.599365%)" offset="0.5625"/><stop stop-opacity="1" stop-color="rgb(21.998596%, 38.598633%, 70.584106%)" offset="0.566406"/><stop stop-opacity="1" stop-color="rgb(21.998596%, 38.398743%, 70.568848%)" offset="0.570312"/><stop stop-opacity="1" stop-color="rgb(21.998596%, 38.198853%, 70.384216%)" offset="0.574219"/><stop stop-opacity="1" stop-color="rgb(21.998596%, 37.998962%, 70.199585%)" offset="0.578125"/><stop stop-opacity="1" stop-color="rgb(21.998596%, 37.802124%, 70.002747%)" offset="0.582031"/><stop stop-opacity="1" stop-color="rgb(21.998596%, 37.605286%, 69.805908%)" offset="0.585938"/><stop stop-opacity="1" stop-color="rgb(21.798706%, 37.602234%, 69.802856%)" offset="0.589844"/><stop stop-opacity="1" stop-color="rgb(21.598816%, 37.599182%, 69.799805%)" offset="0.59375"/><stop stop-opacity="1" stop-color="rgb(21.420288%, 37.44812%, 69.598389%)" offset="0.597656"/><stop stop-opacity="1" stop-color="rgb(21.243286%, 37.298584%, 69.398499%)" offset="0.601562"/><stop stop-opacity="1" stop-color="rgb(21.220398%, 37.080383%, 69.198608%)" offset="0.605469"/><stop stop-opacity="1" stop-color="rgb(21.199036%, 36.862183%, 68.998718%)" offset="0.609375"/><stop stop-opacity="1" stop-color="rgb(21.199036%, 36.671448%, 68.798828%)" offset="0.613281"/><stop stop-opacity="1" stop-color="rgb(21.199036%, 36.480713%, 68.598938%)" offset="0.617188"/><stop stop-opacity="1" stop-color="rgb(21.199036%, 36.289978%, 68.598938%)" offset="0.625"/><stop stop-opacity="1" stop-color="rgb(21.199036%, 35.908508%, 68.408203%)" offset="0.632812"/><stop stop-opacity="1" stop-color="rgb(21.199036%, 35.527039%, 68.208313%)" offset="0.640625"/><stop stop-opacity="1" stop-color="rgb(20.999146%, 35.296631%, 67.999268%)" offset="0.644531"/><stop stop-opacity="1" stop-color="rgb(20.799255%, 35.255432%, 67.799377%)" offset="0.648437"/><stop stop-opacity="1" stop-color="rgb(20.799255%, 35.064697%, 67.790222%)" offset="0.65625"/><stop stop-opacity="1" stop-color="rgb(20.799255%, 34.686279%, 67.63916%)" offset="0.664062"/><stop stop-opacity="1" stop-color="rgb(20.799255%, 34.30481%, 67.498779%)" offset="0.671875"/><stop stop-opacity="1" stop-color="rgb(20.599365%, 33.921814%, 67.298889%)" offset="0.675781"/><stop stop-opacity="1" stop-color="rgb(20.399475%, 33.731079%, 67.098999%)" offset="0.679687"/><stop stop-opacity="1" stop-color="rgb(20.399475%, 33.714294%, 66.899109%)" offset="0.683594"/><stop stop-opacity="1" stop-color="rgb(20.399475%, 33.699036%, 66.699219%)" offset="0.6875"/><stop stop-opacity="1" stop-color="rgb(20.399475%, 33.483887%, 66.499329%)" offset="0.691406"/><stop stop-opacity="1" stop-color="rgb(20.399475%, 33.268738%, 66.299438%)" offset="0.695312"/><stop stop-opacity="1" stop-color="rgb(20.393372%, 33.078003%, 66.293335%)" offset="0.703125"/><stop stop-opacity="1" stop-color="rgb(20.193481%, 32.693481%, 66.093445%)" offset="0.710937"/><stop stop-opacity="1" stop-color="rgb(19.999695%, 32.359314%, 65.899658%)" offset="0.71875"/><stop stop-opacity="1" stop-color="rgb(19.999695%, 32.03125%, 65.699768%)" offset="0.722656"/><stop stop-opacity="1" stop-color="rgb(19.999695%, 31.843567%, 65.499878%)" offset="0.726562"/><stop stop-opacity="1" stop-color="rgb(19.981384%, 31.802368%, 65.298462%)" offset="0.730469"/><stop stop-opacity="1" stop-color="rgb(19.963074%, 31.762695%, 65.098572%)" offset="0.734375"/><stop stop-opacity="1" stop-color="rgb(19.781494%, 31.57196%, 65.089417%)" offset="0.742187"/><stop stop-opacity="1" stop-color="rgb(19.599915%, 31.190491%, 64.889526%)" offset="0.75"/><stop stop-opacity="1" stop-color="rgb(19.599915%, 30.809021%, 64.508057%)" offset="0.757813"/><stop stop-opacity="1" stop-color="rgb(19.599915%, 30.427551%, 64.308167%)" offset="0.765625"/><stop stop-opacity="1" stop-color="rgb(19.577026%, 30.01709%, 64.099121%)" offset="0.769531"/><stop stop-opacity="1" stop-color="rgb(19.555664%, 29.798889%, 63.899231%)" offset="0.773438"/><stop stop-opacity="1" stop-color="rgb(19.377136%, 29.786682%, 63.887024%)" offset="0.78125"/><stop stop-opacity="1" stop-color="rgb(19.198608%, 29.586792%, 63.687134%)" offset="0.789063"/><stop stop-opacity="1" stop-color="rgb(19.198608%, 29.205322%, 63.499451%)" offset="0.796875"/><stop stop-opacity="1" stop-color="rgb(19.198608%, 29.005432%, 63.299561%)" offset="0.800781"/><stop stop-opacity="1" stop-color="rgb(19.198608%, 28.999329%, 63.09967%)" offset="0.804688"/><stop stop-opacity="1" stop-color="rgb(19.198608%, 28.799438%, 62.924194%)" offset="0.808594"/><stop stop-opacity="1" stop-color="rgb(19.198608%, 28.599548%, 62.750244%)" offset="0.8125"/><stop stop-opacity="1" stop-color="rgb(18.998718%, 28.384399%, 62.713623%)" offset="0.816406"/><stop stop-opacity="1" stop-color="rgb(18.798828%, 28.16925%, 62.677002%)" offset="0.820313"/><stop stop-opacity="1" stop-color="rgb(18.798828%, 27.984619%, 62.532043%)" offset="0.828125"/><stop stop-opacity="1" stop-color="rgb(18.798828%, 27.648926%, 62.193298%)" offset="0.84375"/><stop stop-opacity="1" stop-color="rgb(18.6203%, 27.2995%, 61.799622%)" offset="0.847656"/><stop stop-opacity="1" stop-color="rgb(18.443298%, 27.099609%, 61.599731%)" offset="0.851563"/><stop stop-opacity="1" stop-color="rgb(18.42041%, 26.899719%, 61.581421%)" offset="0.855469"/><stop stop-opacity="1" stop-color="rgb(18.399048%, 26.699829%, 61.56311%)" offset="0.859375"/><stop stop-opacity="1" stop-color="rgb(18.399048%, 26.690674%, 61.381531%)" offset="0.867188"/><stop stop-opacity="1" stop-color="rgb(18.399048%, 26.489258%, 61.199951%)" offset="0.875"/><stop stop-opacity="1" stop-color="rgb(18.399048%, 26.098633%, 60.998535%)" offset="0.878906"/><stop stop-opacity="1" stop-color="rgb(18.399048%, 25.898743%, 60.798645%)" offset="0.882812"/><stop stop-opacity="1" stop-color="rgb(18.399048%, 25.698853%, 60.617065%)" offset="0.886719"/><stop stop-opacity="1" stop-color="rgb(18.399048%, 25.498962%, 60.437012%)" offset="0.890625"/><stop stop-opacity="1" stop-color="rgb(18.199158%, 25.299072%, 60.395813%)" offset="0.894531"/><stop stop-opacity="1" stop-color="rgb(17.999268%, 25.099182%, 60.35614%)" offset="0.898438"/><stop stop-opacity="1" stop-color="rgb(17.999268%, 25.086975%, 60.177612%)" offset="0.90625"/><stop stop-opacity="1" stop-color="rgb(17.999268%, 24.887085%, 59.799194%)" offset="0.910156"/><stop stop-opacity="1" stop-color="rgb(17.999268%, 24.699402%, 59.599304%)" offset="0.914062"/><stop stop-opacity="1" stop-color="rgb(17.999268%, 24.505615%, 59.599304%)" offset="0.921875"/><stop stop-opacity="1" stop-color="rgb(17.999268%, 24.305725%, 59.414673%)" offset="0.929688"/><stop stop-opacity="1" stop-color="rgb(17.823792%, 24.099731%, 59.214783%)" offset="0.933594"/><stop stop-opacity="1" stop-color="rgb(17.649841%, 23.899841%, 59.199524%)" offset="0.9375"/><stop stop-opacity="1" stop-color="rgb(17.623901%, 23.698425%, 58.999634%)" offset="0.941406"/><stop stop-opacity="1" stop-color="rgb(17.599487%, 23.498535%, 58.799744%)" offset="0.945312"/><stop stop-opacity="1" stop-color="rgb(17.599487%, 23.298645%, 58.599854%)" offset="0.949219"/><stop stop-opacity="1" stop-color="rgb(17.599487%, 23.098755%, 58.399963%)" offset="0.953125"/><stop stop-opacity="1" stop-color="rgb(17.599487%, 23.098755%, 58.399963%)" offset="0.960938"/><stop stop-opacity="1" stop-color="rgb(17.459106%, 22.898865%, 58.21228%)" offset="0.964844"/><stop stop-opacity="1" stop-color="rgb(17.318726%, 22.698975%, 58.024597%)" offset="0.96875"/><stop stop-opacity="1" stop-color="rgb(17.308044%, 22.564697%, 58.010864%)" offset="0.976562"/><stop stop-opacity="1" stop-color="rgb(17.298889%, 22.415161%, 57.798767%)" offset="0.980469"/><stop stop-opacity="1" stop-color="rgb(17.298889%, 22.399902%, 57.598877%)" offset="0.984375"/><stop stop-opacity="1" stop-color="rgb(17.298889%, 22.198486%, 57.591248%)" offset="0.988281"/><stop stop-opacity="1" stop-color="rgb(17.298889%, 21.998596%, 57.585144%)" offset="0.992188"/><stop stop-opacity="1" stop-color="rgb(17.298889%, 21.998596%, 57.441711%)" offset="1"/></linearGradient></defs><g clip-path="url(#2e68d3e8cd)"><g clip-path="url(#8e033dfa63)"><g clip-path="url(#4f1d11e285)"><path fill="url(#420313bd49)" d="M 0 108.476562 L 0 228.378906 L 375 228.378906 L 375 108.476562 Z M 0 108.476562 " fill-rule="nonzero"/></g></g></g><g clip-path="url(#85066e7e11)"><g clip-path="url(#7da93351ad)"><g clip-path="url(#37f1c5786f)"><path fill="url(#17fef0123b)" d="M 133.40625 114.355469 L 133.40625 222.5 L 241.59375 222.5 L 241.59375 114.355469 Z M 133.40625 114.355469 " fill-rule="nonzero"/></g></g></g><g fill="#3968b8" fill-opacity="1"><g transform="translate(164.848542, 188.123574)"><g><path d="M 40.402344 -38.566406 C 40.402344 -39.484375 40.171875 -39.941406 39.140625 -40.058594 L 26.570312 -40.859375 L 23.53125 -40.859375 C 9.582031 -40.859375 2.007812 -34.089844 2.007812 -20.144531 C 2.007812 -6.199219 9.582031 0.574219 23.53125 0.574219 L 29.554688 0.574219 L 39.023438 0.113281 C 40 0.0585938 40.285156 -0.230469 40.34375 -1.207031 L 40.34375 -18.824219 C 40.402344 -19.742188 40.058594 -20.144531 39.023438 -20.144531 L 31.277344 -20.144531 C 30.300781 -20.144531 30.015625 -19.800781 29.957031 -18.824219 L 29.210938 -0.230469 L 24.332031 -0.230469 C 18.019531 -0.230469 12.914062 -11.191406 12.914062 -20.144531 C 12.914062 -29.097656 18.019531 -40.058594 24.332031 -40.058594 L 37.015625 -29.210938 C 37.417969 -28.808594 37.820312 -28.636719 38.277344 -28.636719 C 38.507812 -28.636719 38.679688 -28.695312 38.910156 -28.75 L 39.597656 -29.039062 C 40.171875 -29.269531 40.402344 -29.613281 40.402344 -30.414062 Z M 40.402344 -38.566406 "/></g></g></g><g fill="#225aa5" fill-opacity="1"><g transform="translate(72.323594, 260.898587)"><g><path d="M 10.625 -11.796875 L 18.953125 -11.796875 L 18.953125 -0.90625 C 17.609375 -0.46875 16.335938 -0.160156 15.140625 0.015625 C 13.953125 0.191406 12.734375 0.28125 11.484375 0.28125 C 8.316406 0.28125 5.894531 -0.644531 4.21875 -2.5 C 2.539062 -4.363281 1.703125 -7.039062 1.703125 -10.53125 C 1.703125 -13.925781 2.671875 -16.570312 4.609375 -18.46875 C 6.554688 -20.363281 9.25 -21.3125 12.6875 -21.3125 C 14.84375 -21.3125 16.925781 -20.878906 18.9375 -20.015625 L 17.453125 -16.453125 C 15.921875 -17.222656 14.320312 -17.609375 12.65625 -17.609375 C 10.738281 -17.609375 9.195312 -16.960938 8.03125 -15.671875 C 6.875 -14.378906 6.296875 -12.640625 6.296875 -10.453125 C 6.296875 -8.171875 6.757812 -6.425781 7.6875 -5.21875 C 8.625 -4.019531 9.984375 -3.421875 11.765625 -3.421875 C 12.703125 -3.421875 13.648438 -3.515625 14.609375 -3.703125 L 14.609375 -8.09375 L 10.625 -8.09375 Z M 10.625 -11.796875 "/></g></g></g><g fill="#225aa5" fill-opacity="1"><g transform="translate(93.637009, 260.898587)"><g><path d="M 7.09375 -11.6875 L 8.53125 -11.6875 C 9.945312 -11.6875 10.988281 -11.921875 11.65625 -12.390625 C 12.320312 -12.859375 12.65625 -13.597656 12.65625 -14.609375 C 12.65625 -15.597656 12.3125 -16.300781 11.625 -16.71875 C 10.945312 -17.144531 9.890625 -17.359375 8.453125 -17.359375 L 7.09375 -17.359375 Z M 7.09375 -8.0625 L 7.09375 0 L 2.640625 0 L 2.640625 -21.015625 L 8.765625 -21.015625 C 11.617188 -21.015625 13.726562 -20.492188 15.09375 -19.453125 C 16.46875 -18.410156 17.15625 -16.832031 17.15625 -14.71875 C 17.15625 -13.476562 16.816406 -12.375 16.140625 -11.40625 C 15.460938 -10.445312 14.5 -9.695312 13.25 -9.15625 C 16.414062 -4.425781 18.476562 -1.375 19.4375 0 L 14.484375 0 L 9.46875 -8.0625 Z M 7.09375 -8.0625 "/></g></g></g><g fill="#225aa5" fill-opacity="1"><g transform="translate(113.067715, 260.898587)"><g><path d="M 21.71875 -10.53125 C 21.71875 -7.050781 20.851562 -4.378906 19.125 -2.515625 C 17.40625 -0.648438 14.9375 0.28125 11.71875 0.28125 C 8.5 0.28125 6.023438 -0.648438 4.296875 -2.515625 C 2.566406 -4.378906 1.703125 -7.0625 1.703125 -10.5625 C 1.703125 -14.0625 2.566406 -16.734375 4.296875 -18.578125 C 6.035156 -20.421875 8.519531 -21.34375 11.75 -21.34375 C 14.976562 -21.34375 17.445312 -20.410156 19.15625 -18.546875 C 20.863281 -16.691406 21.71875 -14.019531 21.71875 -10.53125 Z M 6.375 -10.53125 C 6.375 -8.1875 6.820312 -6.421875 7.71875 -5.234375 C 8.613281 -4.046875 9.945312 -3.453125 11.71875 -3.453125 C 15.269531 -3.453125 17.046875 -5.8125 17.046875 -10.53125 C 17.046875 -15.269531 15.28125 -17.640625 11.75 -17.640625 C 9.96875 -17.640625 8.625 -17.039062 7.71875 -15.84375 C 6.820312 -14.65625 6.375 -12.882812 6.375 -10.53125 Z M 6.375 -10.53125 "/></g></g></g><g fill="#225aa5" fill-opacity="1"><g transform="translate(136.493788, 260.898587)"><g><path d="M 19.75 -21.015625 L 19.75 -7.421875 C 19.75 -5.867188 19.398438 -4.503906 18.703125 -3.328125 C 18.015625 -2.160156 17.015625 -1.265625 15.703125 -0.640625 C 14.390625 -0.0234375 12.835938 0.28125 11.046875 0.28125 C 8.335938 0.28125 6.234375 -0.40625 4.734375 -1.78125 C 3.242188 -3.164062 2.5 -5.0625 2.5 -7.46875 L 2.5 -21.015625 L 6.9375 -21.015625 L 6.9375 -8.15625 C 6.9375 -6.53125 7.257812 -5.335938 7.90625 -4.578125 C 8.5625 -3.828125 9.644531 -3.453125 11.15625 -3.453125 C 12.613281 -3.453125 13.671875 -3.832031 14.328125 -4.59375 C 14.984375 -5.351562 15.3125 -6.546875 15.3125 -8.171875 L 15.3125 -21.015625 Z M 19.75 -21.015625 "/></g></g></g><g fill="#225aa5" fill-opacity="1"><g transform="translate(158.741372, 260.898587)"><g><path d="M 7.09375 -11.125 L 8.5625 -11.125 C 9.9375 -11.125 10.960938 -11.394531 11.640625 -11.9375 C 12.316406 -12.476562 12.65625 -13.265625 12.65625 -14.296875 C 12.65625 -15.347656 12.367188 -16.117188 11.796875 -16.609375 C 11.234375 -17.109375 10.34375 -17.359375 9.125 -17.359375 L 7.09375 -17.359375 Z M 17.15625 -14.453125 C 17.15625 -12.191406 16.445312 -10.460938 15.03125 -9.265625 C 13.625 -8.066406 11.617188 -7.46875 9.015625 -7.46875 L 7.09375 -7.46875 L 7.09375 0 L 2.640625 0 L 2.640625 -21.015625 L 9.359375 -21.015625 C 11.910156 -21.015625 13.847656 -20.460938 15.171875 -19.359375 C 16.492188 -18.265625 17.15625 -16.628906 17.15625 -14.453125 Z M 17.15625 -14.453125 "/></g></g></g><g fill="#225aa5" fill-opacity="1"><g transform="translate(177.223538, 260.898587)"><g><path d="M 21.71875 -10.53125 C 21.71875 -7.050781 20.851562 -4.378906 19.125 -2.515625 C 17.40625 -0.648438 14.9375 0.28125 11.71875 0.28125 C 8.5 0.28125 6.023438 -0.648438 4.296875 -2.515625 C 2.566406 -4.378906 1.703125 -7.0625 1.703125 -10.5625 C 1.703125 -14.0625 2.566406 -16.734375 4.296875 -18.578125 C 6.035156 -20.421875 8.519531 -21.34375 11.75 -21.34375 C 14.976562 -21.34375 17.445312 -20.410156 19.15625 -18.546875 C 20.863281 -16.691406 21.71875 -14.019531 21.71875 -10.53125 Z M 6.375 -10.53125 C 6.375 -8.1875 6.820312 -6.421875 7.71875 -5.234375 C 8.613281 -4.046875 9.945312 -3.453125 11.71875 -3.453125 C 15.269531 -3.453125 17.046875 -5.8125 17.046875 -10.53125 C 17.046875 -15.269531 15.28125 -17.640625 11.75 -17.640625 C 9.96875 -17.640625 8.625 -17.039062 7.71875 -15.84375 C 6.820312 -14.65625 6.375 -12.882812 6.375 -10.53125 Z M 6.375 -10.53125 "/></g></g></g><g fill="#225aa5" fill-opacity="1"><g transform="translate(200.64961, 260.898587)"><g><path d="M 11.546875 0 L 6.484375 -16.484375 L 6.359375 -16.484375 C 6.535156 -13.128906 6.625 -10.894531 6.625 -9.78125 L 6.625 0 L 2.640625 0 L 2.640625 -21.015625 L 8.703125 -21.015625 L 13.6875 -4.9375 L 13.765625 -4.9375 L 19.046875 -21.015625 L 25.109375 -21.015625 L 25.109375 0 L 20.953125 0 L 20.953125 -9.953125 C 20.953125 -10.421875 20.957031 -10.957031 20.96875 -11.5625 C 20.988281 -12.175781 21.054688 -13.804688 21.171875 -16.453125 L 21.046875 -16.453125 L 15.625 0 Z M 11.546875 0 "/></g></g></g><g fill="#225aa5" fill-opacity="1"><g transform="translate(228.401603, 260.898587)"><g><path d="M 15.515625 0 L 13.984375 -5 L 6.328125 -5 L 4.796875 0 L 0 0 L 7.421875 -21.09375 L 12.859375 -21.09375 L 20.3125 0 Z M 12.921875 -8.734375 C 11.515625 -13.265625 10.722656 -15.828125 10.546875 -16.421875 C 10.367188 -17.023438 10.238281 -17.5 10.15625 -17.84375 C 9.84375 -16.613281 8.941406 -13.578125 7.453125 -8.734375 Z M 12.921875 -8.734375 "/></g></g></g><g fill="#225aa5" fill-opacity="1"><g transform="translate(248.70899, 260.898587)"><g><path d="M 21.28125 0 L 15.625 0 L 6.484375 -15.890625 L 6.359375 -15.890625 C 6.535156 -13.085938 6.625 -11.085938 6.625 -9.890625 L 6.625 0 L 2.640625 0 L 2.640625 -21.015625 L 8.265625 -21.015625 L 17.390625 -5.28125 L 17.5 -5.28125 C 17.351562 -8.007812 17.28125 -9.9375 17.28125 -11.0625 L 17.28125 -21.015625 L 21.28125 -21.015625 Z M 21.28125 0 "/></g></g></g><g fill="#225aa5" fill-opacity="1"><g transform="translate(272.638077, 260.898587)"><g><path d="M 2.640625 0 L 2.640625 -21.015625 L 7.09375 -21.015625 L 7.09375 0 Z M 2.640625 0 "/></g></g></g><g fill="#225aa5" fill-opacity="1"><g transform="translate(282.382174, 260.898587)"><g><path d="M 15.515625 0 L 13.984375 -5 L 6.328125 -5 L 4.796875 0 L 0 0 L 7.421875 -21.09375 L 12.859375 -21.09375 L 20.3125 0 Z M 12.921875 -8.734375 C 11.515625 -13.265625 10.722656 -15.828125 10.546875 -16.421875 C 10.367188 -17.023438 10.238281 -17.5 10.15625 -17.84375 C 9.84375 -16.613281 8.941406 -13.578125 7.453125 -8.734375 Z M 12.921875 -8.734375 "/></g></g></g><g fill="#225aa5" fill-opacity="1"><g transform="translate(140.585365, 284.22377)"><g><path d="M 4.71875 0 L 3.484375 0 L 3.484375 -9.484375 L 0.125 -9.484375 L 0.125 -10.578125 L 8.0625 -10.578125 L 8.0625 -9.484375 L 4.71875 -9.484375 Z M 4.71875 0 "/></g></g></g><g fill="#225aa5" fill-opacity="1"><g transform="translate(150.594666, 284.22377)"><g><path d="M 7.359375 0 L 1.453125 0 L 1.453125 -10.578125 L 7.359375 -10.578125 L 7.359375 -9.484375 L 2.6875 -9.484375 L 2.6875 -6.078125 L 7.078125 -6.078125 L 7.078125 -5 L 2.6875 -5 L 2.6875 -1.09375 L 7.359375 -1.09375 Z M 7.359375 0 "/></g></g></g><g fill="#225aa5" fill-opacity="1"><g transform="translate(160.64739, 284.22377)"><g><path d="M 5.984375 -9.640625 C 4.828125 -9.640625 3.910156 -9.25 3.234375 -8.46875 C 2.554688 -7.695312 2.21875 -6.640625 2.21875 -5.296875 C 2.21875 -3.910156 2.539062 -2.835938 3.1875 -2.078125 C 3.84375 -1.328125 4.769531 -0.953125 5.96875 -0.953125 C 6.707031 -0.953125 7.550781 -1.082031 8.5 -1.34375 L 8.5 -0.265625 C 7.769531 0.00390625 6.863281 0.140625 5.78125 0.140625 C 4.226562 0.140625 3.023438 -0.328125 2.171875 -1.265625 C 1.328125 -2.210938 0.90625 -3.5625 0.90625 -5.3125 C 0.90625 -6.394531 1.109375 -7.347656 1.515625 -8.171875 C 1.921875 -8.992188 2.507812 -9.625 3.28125 -10.0625 C 4.050781 -10.507812 4.957031 -10.734375 6 -10.734375 C 7.113281 -10.734375 8.082031 -10.53125 8.90625 -10.125 L 8.390625 -9.078125 C 7.585938 -9.453125 6.785156 -9.640625 5.984375 -9.640625 Z M 5.984375 -9.640625 "/></g></g></g><g fill="#225aa5" fill-opacity="1"><g transform="translate(171.807402, 284.22377)"><g><path d="M 9.484375 0 L 8.265625 0 L 8.265625 -4.984375 L 2.6875 -4.984375 L 2.6875 0 L 1.453125 0 L 1.453125 -10.578125 L 2.6875 -10.578125 L 2.6875 -6.078125 L 8.265625 -6.078125 L 8.265625 -10.578125 L 9.484375 -10.578125 Z M 9.484375 0 "/></g></g></g><g fill="#225aa5" fill-opacity="1"><g transform="translate(184.552361, 284.22377)"><g><path d="M 9.71875 0 L 8.3125 0 L 2.53125 -8.890625 L 2.46875 -8.890625 C 2.550781 -7.835938 2.59375 -6.878906 2.59375 -6.015625 L 2.59375 0 L 1.453125 0 L 1.453125 -10.578125 L 2.84375 -10.578125 L 8.609375 -1.734375 L 8.671875 -1.734375 C 8.660156 -1.867188 8.640625 -2.285156 8.609375 -2.984375 C 8.578125 -3.691406 8.566406 -4.203125 8.578125 -4.515625 L 8.578125 -10.578125 L 9.71875 -10.578125 Z M 9.71875 0 "/></g></g></g><g fill="#225aa5" fill-opacity="1"><g transform="translate(197.536146, 284.22377)"><g><path d="M 10.640625 -5.3125 C 10.640625 -3.613281 10.210938 -2.28125 9.359375 -1.3125 C 8.503906 -0.34375 7.3125 0.140625 5.78125 0.140625 C 4.226562 0.140625 3.023438 -0.332031 2.171875 -1.28125 C 1.328125 -2.238281 0.90625 -3.585938 0.90625 -5.328125 C 0.90625 -7.046875 1.328125 -8.378906 2.171875 -9.328125 C 3.023438 -10.273438 4.234375 -10.75 5.796875 -10.75 C 7.316406 -10.75 8.503906 -10.265625 9.359375 -9.296875 C 10.210938 -8.335938 10.640625 -7.007812 10.640625 -5.3125 Z M 2.203125 -5.3125 C 2.203125 -3.875 2.507812 -2.785156 3.125 -2.046875 C 3.738281 -1.304688 4.625 -0.9375 5.78125 -0.9375 C 6.957031 -0.9375 7.84375 -1.304688 8.4375 -2.046875 C 9.039062 -2.785156 9.34375 -3.875 9.34375 -5.3125 C 9.34375 -6.726562 9.039062 -7.804688 8.4375 -8.546875 C 7.84375 -9.285156 6.960938 -9.65625 5.796875 -9.65625 C 4.628906 -9.65625 3.738281 -9.28125 3.125 -8.53125 C 2.507812 -7.789062 2.203125 -6.71875 2.203125 -5.3125 Z M 2.203125 -5.3125 "/></g></g></g><g fill="#225aa5" fill-opacity="1"><g transform="translate(210.889025, 284.22377)"><g><path d="M 1.453125 0 L 1.453125 -10.578125 L 2.6875 -10.578125 L 2.6875 -1.109375 L 7.359375 -1.109375 L 7.359375 0 Z M 1.453125 0 "/></g></g></g><g fill="#225aa5" fill-opacity="1"><g transform="translate(220.391724, 284.22377)"><g><path d="M 10.640625 -5.3125 C 10.640625 -3.613281 10.210938 -2.28125 9.359375 -1.3125 C 8.503906 -0.34375 7.3125 0.140625 5.78125 0.140625 C 4.226562 0.140625 3.023438 -0.332031 2.171875 -1.28125 C 1.328125 -2.238281 0.90625 -3.585938 0.90625 -5.328125 C 0.90625 -7.046875 1.328125 -8.378906 2.171875 -9.328125 C 3.023438 -10.273438 4.234375 -10.75 5.796875 -10.75 C 7.316406 -10.75 8.503906 -10.265625 9.359375 -9.296875 C 10.210938 -8.335938 10.640625 -7.007812 10.640625 -5.3125 Z M 2.203125 -5.3125 C 2.203125 -3.875 2.507812 -2.785156 3.125 -2.046875 C 3.738281 -1.304688 4.625 -0.9375 5.78125 -0.9375 C 6.957031 -0.9375 7.84375 -1.304688 8.4375 -2.046875 C 9.039062 -2.785156 9.34375 -3.875 9.34375 -5.3125 C 9.34375 -6.726562 9.039062 -7.804688 8.4375 -8.546875 C 7.84375 -9.285156 6.960938 -9.65625 5.796875 -9.65625 C 4.628906 -9.65625 3.738281 -9.28125 3.125 -8.53125 C 2.507812 -7.789062 2.203125 -6.71875 2.203125 -5.3125 Z M 2.203125 -5.3125 "/></g></g></g><g fill="#225aa5" fill-opacity="1"><g transform="translate(233.744606, 284.22377)"><g><path d="M 6.109375 -5.546875 L 9.703125 -5.546875 L 9.703125 -0.390625 C 9.148438 -0.210938 8.582031 -0.0820312 8 0 C 7.414062 0.09375 6.742188 0.140625 5.984375 0.140625 C 4.378906 0.140625 3.128906 -0.332031 2.234375 -1.28125 C 1.347656 -2.238281 0.90625 -3.578125 0.90625 -5.296875 C 0.90625 -6.390625 1.125 -7.347656 1.5625 -8.171875 C 2.007812 -9.003906 2.644531 -9.640625 3.46875 -10.078125 C 4.300781 -10.515625 5.273438 -10.734375 6.390625 -10.734375 C 7.523438 -10.734375 8.578125 -10.523438 9.546875 -10.109375 L 9.078125 -9.03125 C 8.117188 -9.4375 7.195312 -9.640625 6.3125 -9.640625 C 5.019531 -9.640625 4.007812 -9.253906 3.28125 -8.484375 C 2.5625 -7.710938 2.203125 -6.648438 2.203125 -5.296875 C 2.203125 -3.867188 2.550781 -2.785156 3.25 -2.046875 C 3.945312 -1.304688 4.972656 -0.9375 6.328125 -0.9375 C 7.054688 -0.9375 7.773438 -1.019531 8.484375 -1.1875 L 8.484375 -4.453125 L 6.109375 -4.453125 Z M 6.109375 -5.546875 "/></g></g></g><g fill="#225aa5" fill-opacity="1"><g transform="translate(246.344821, 284.22377)"><g><path d="M 4.15625 -5.296875 L 6.96875 -10.578125 L 8.296875 -10.578125 L 4.765625 -4.109375 L 4.765625 0 L 3.53125 0 L 3.53125 -4.046875 L 0 -10.578125 L 1.34375 -10.578125 Z M 4.15625 -5.296875 "/></g></g></g></svg>